<?xml version="1.0" encoding="UTF-8" standalone="no"?>
<!DOCTYPE svg PUBLIC "-//W3C//DTD SVG 1.1//EN" "http://www.w3.org/Graphics/SVG/1.1/DTD/svg11.dtd">
<svg xmlns="http://www.w3.org/2000/svg" version="1.1" viewBox="0.00 0.00 600.00 423.00">
<g stroke-width="2.00" fill="none" stroke-linecap="butt">
<path stroke="#cdcecd" vector-effect="non-scaling-stroke" d="
  M 600.00 275.53
  Q 588.19 235.18 575.75 194.59
  Q 575.41 193.46 574.80 192.48
  Q 573.25 189.98 575.59 191.75
  Q 577.81 193.43 579.95 195.26
  Q 589.69 203.61 599.28 211.48
  Q 599.45 211.61 599.59 211.45
  L 599.76 211.24
  A 0.35 0.35 0.0 0 0 599.71 210.75
  L 574.61 189.63
  A 1.23 1.23 0.0 0 1 574.22 188.39
  L 600.18 87.49
  Q 600.24 87.28 600.03 87.23
  L 599.76 87.16
  Q 599.26 87.03 599.12 87.54
  L 573.02 188.64
  Q 572.92 189.04 572.58 189.29
  L 516.53 230.56
  Q 516.13 230.86 515.95 231.50
  L 496.22 305.11
  A 1.09 1.08 -78.6 0 1 495.04 305.90
  Q 492.96 305.65 490.87 306.15
  C 489.27 306.53 487.93 305.73 486.33 306.20
  Q 484.89 306.62 483.37 306.73
  Q 437.79 310.09 391.92 313.53
  Q 391.66 313.55 391.68 313.80
  L 391.73 314.41
  Q 391.74 314.61 391.95 314.60
  Q 433.43 311.55 480.20 307.83
  C 481.94 307.69 483.78 307.95 485.45 307.68
  C 488.35 307.21 491.20 307.28 494.06 306.73
  Q 495.44 306.46 494.43 307.43
  L 468.19 332.88
  A 1.01 1.00 30.9 0 1 467.20 333.12
  Q 463.90 332.12 460.34 331.30
  C 459.15 331.02 457.96 331.20 456.92 330.45
  Q 456.52 330.16 456.03 330.12
  Q 454.84 330.02 453.72 329.76
  Q 423.03 322.45 391.13 314.78
  Q 391.03 314.76 390.95 314.69
  Q 390.82 314.57 390.87 314.36
  A 0.33 0.32 12.7 0 0 390.61 313.95
  Q 387.90 313.54 385.89 314.87
  Q 350.72 338.22 315.10 362.15
  Q 312.68 363.78 309.61 364.54
  Q 275.40 372.96 241.62 381.26
  A 9.23 9.08 21.3 0 0 238.76 382.49
  L 177.04 422.26
  Q 176.87 422.37 176.99 422.52
  L 177.22 422.84
  A 0.44 0.44 0.0 0 0 177.81 422.95
  L 239.55 383.26
  A 1.43 1.42 -44.1 0 1 241.11 383.28
  L 300.32 423.00"
/>
<path stroke="#cdcecd" vector-effect="non-scaling-stroke" d="
  M 600.00 277.07
  L 544.93 333.52
  A 0.55 0.55 0.0 0 0 545.09 334.40
  L 577.18 349.31"
/>
<path stroke="#b4b4b4" vector-effect="non-scaling-stroke" d="
  M 577.18 349.31
  L 599.74 359.82"
/>
<path stroke="#cdcecd" vector-effect="non-scaling-stroke" d="
  M 599.74 359.82
  Q 599.80 360.03 600.00 360.26"
/>
<path stroke="#cdcecd" vector-effect="non-scaling-stroke" d="
  M 600.00 361.86
  L 599.54 362.90"
/>
<path stroke="#b4b4b4" vector-effect="non-scaling-stroke" d="
  M 599.54 362.90
  L 587.02 383.32"
/>
<path stroke="#cdcecd" vector-effect="non-scaling-stroke" d="
  M 587.02 383.32
  L 573.87 404.98"
/>
<path stroke="#b4b4b4" vector-effect="non-scaling-stroke" d="
  M 573.87 404.98
  L 567.63 415.63"
/>
<path stroke="#cdcecd" vector-effect="non-scaling-stroke" d="
  M 567.63 415.63
  L 562.63 423.00"
/>
<path stroke="#cdcecd" vector-effect="non-scaling-stroke" d="
  M 561.90 423.00
  L 531.70 386.05
  A 0.69 0.69 0.0 0 0 530.76 385.92
  L 478.40 423.00"
/>
<path stroke="#cdcecd" vector-effect="non-scaling-stroke" d="
  M 476.66 423.00
  L 475.75 422.46"
/>
<path stroke="#b4b4b4" vector-effect="non-scaling-stroke" d="
  M 475.75 422.46
  L 458.07 410.00"
/>
<path stroke="#cdcecd" vector-effect="non-scaling-stroke" d="
  M 458.07 410.00
  L 437.18 395.46"
/>
<path stroke="#b4b4b4" vector-effect="non-scaling-stroke" d="
  M 437.18 395.46
  L 430.46 390.89"
/>
<path stroke="#cdcecd" vector-effect="non-scaling-stroke" d="
  M 430.46 390.89
  Q 428.68 388.91 425.85 387.56
  Q 425.39 387.34 424.90 387.48
  L 386.55 398.81"
/>
<path stroke="#b4b4b4" vector-effect="non-scaling-stroke" d="
  M 386.55 398.81
  L 352.59 408.63"
/>
<path stroke="#cdcecd" vector-effect="non-scaling-stroke" d="
  M 352.59 408.63
  L 302.54 423.00"
/>
<path stroke="#cdcecd" vector-effect="non-scaling-stroke" d="
  M 573.29 190.47
  A 0.30 0.30 0.0 0 0 572.83 190.31
  L 517.96 230.71
  A 0.30 0.30 0.0 0 0 518.00 231.22
  L 598.50 274.91
  A 0.30 0.30 0.0 0 0 598.93 274.56
  L 573.29 190.47"
/>
<path stroke="#cdcecd" vector-effect="non-scaling-stroke" d="
  M 598.47 276.09
  L 517.75 232.35
  Q 516.99 231.94 517.37 232.71
  C 518.39 234.76 518.76 236.99 519.33 239.21
  Q 523.56 255.68 528.05 272.47
  Q 528.25 273.21 528.43 273.94
  Q 530.77 283.33 533.29 292.67
  C 536.90 306.05 539.94 319.37 543.84 332.42
  A 0.45 0.45 0.0 0 0 544.59 332.61
  L 598.62 277.11
  Q 599.22 276.50 598.47 276.09"
/>
<path stroke="#cdcecd" vector-effect="non-scaling-stroke" d="
  M 534.18 300.36
  Q 528.48 278.84 523.10 257.98
  C 522.42 255.35 521.55 252.87 520.95 250.22
  Q 519.25 242.69 516.79 234.12
  Q 516.42 232.84 516.19 234.16
  Q 515.64 237.29 514.77 240.51
  Q 506.38 271.50 498.12 302.53
  C 497.86 303.53 498.02 304.47 497.28 305.36
  Q 496.92 305.79 497.41 306.08
  L 542.08 332.74
  A 0.36 0.36 0.0 0 0 542.61 332.34
  Q 542.55 332.14 542.39 331.99
  A 0.80 0.71 -76.7 0 1 542.19 331.62
  Q 538.77 317.63 534.18 300.36"
/>
<path stroke="#cdcecd" vector-effect="non-scaling-stroke" d="
  M 516.64 333.45
  Q 527.70 333.68 536.76 333.71
  Q 538.78 333.72 540.58 334.12
  Q 540.91 334.20 541.07 333.90
  Q 541.16 333.75 541.09 333.59
  Q 540.97 333.29 540.69 333.13
  Q 518.51 320.00 497.20 307.13
  A 1.04 1.04 0.0 0 0 495.87 307.33
  Q 492.13 311.60 487.90 315.34
  Q 483.34 319.36 479.72 322.96
  Q 474.74 327.91 470.00 332.45
  Q 469.21 333.22 470.31 333.21
  Q 493.80 333.00 516.64 333.45"
/>
<path stroke="#b4b4b4" vector-effect="non-scaling-stroke" d="
  M 460.58 401.73
  L 475.64 419.73
  Q 476.21 420.41 476.23 419.52
  Q 476.32 415.25 475.58 410.83
  Q 475.16 408.34 475.01 405.89
  Q 474.86 403.41 474.57 400.93
  Q 473.88 395.13 473.74 393.53
  Q 472.77 382.89 471.03 371.66"
/>
<path stroke="#cdcecd" vector-effect="non-scaling-stroke" d="
  M 471.03 371.66
  Q 471.28 369.25 470.90 366.20
  C 469.79 357.22 469.00 348.24 467.90 339.45
  C 467.69 337.77 468.08 336.22 467.44 334.61
  Q 467.25 334.11 466.73 333.99
  Q 429.74 325.12 392.74 316.30
  Q 391.26 315.95 390.47 315.56
  Q 387.98 314.32 389.72 316.44
  Q 416.75 349.50 437.66 374.56
  Q 448.92 388.04 460.58 401.73"
/>
<path stroke="#e6e6e6" vector-effect="non-scaling-stroke" d="
  M 471.03 371.66
  L 460.58 401.73"
/>
<path stroke="#cdcecd" vector-effect="non-scaling-stroke" d="
  M 351.34 371.48
  Q 384.56 378.02 420.02 385.09
  Q 420.73 385.23 421.51 385.24
  Q 422.54 385.27 422.98 385.57
  Q 425.36 387.20 424.01 384.65
  Q 405.93 350.43 387.77 316.00
  A 0.87 0.87 0.0 0 0 386.52 315.68
  L 314.54 363.74
  Q 314.13 364.02 314.50 364.34
  Q 314.72 364.53 314.97 364.39
  Q 315.23 364.25 315.52 364.31
  Q 333.75 368.01 351.34 371.48"
/>
<path stroke="#b4b4b4" vector-effect="non-scaling-stroke" d="
  M 458.49 409.05
  L 473.08 419.44
  Q 474.39 420.37 473.37 419.13
  L 460.43 403.20"
/>
<path stroke="#cdcecd" vector-effect="non-scaling-stroke" d="
  M 460.43 403.20
  L 391.36 320.04
  Q 391.28 319.94 391.16 319.94
  Q 390.97 319.94 390.94 320.09
  Q 390.91 320.24 390.99 320.37
  Q 408.09 352.48 425.16 384.65
  Q 426.15 386.53 428.01 387.83
  Q 443.21 398.41 458.49 409.05"
/>
<path stroke="#e6e6e6" vector-effect="non-scaling-stroke" d="
  M 460.43 403.20
  Q 460.30 403.87 460.03 403.94
  A 1.04 1.04 0.0 0 1 459.02 403.65
  Q 455.28 399.66 452.00 395.29
  C 450.23 392.92 447.92 391.05 446.20 388.58
  Q 441.65 382.06 436.59 376.58
  Q 432.97 372.66 429.29 368.12
  Q 425.74 363.75 421.99 359.38
  Q 421.87 359.25 421.72 359.36
  L 421.71 359.37
  Q 421.59 359.47 421.68 359.60
  Q 425.08 364.40 428.98 368.61
  C 430.58 370.33 431.73 372.24 433.29 373.90
  Q 435.07 375.80 436.30 377.71
  Q 437.87 380.14 439.19 381.55
  Q 444.00 386.73 448.79 393.04
  C 449.61 394.12 450.83 394.84 451.44 395.97
  Q 452.16 397.30 453.20 398.41
  Q 455.65 401.00 457.43 403.68
  Q 457.73 404.14 458.24 404.36
  Q 458.69 404.56 458.95 404.95
  Q 459.25 405.41 459.04 405.92
  Q 458.45 407.37 458.49 409.05"
/>
<path stroke="#b4b4b4" vector-effect="non-scaling-stroke" d="
  M 472.43 367.88
  Q 473.65 381.40 475.31 395.44
  Q 475.56 397.51 475.68 399.58
  Q 475.79 401.68 476.12 403.73
  Q 476.62 406.82 476.73 409.80
  Q 476.93 415.08 477.93 419.94
  Q 478.31 421.72 479.13 420.10
  L 479.78 418.82"
/>
<path stroke="#cdcecd" vector-effect="non-scaling-stroke" d="
  M 479.78 418.82
  L 505.62 384.50"
/>
<path stroke="#b4b4b4" vector-effect="non-scaling-stroke" d="
  M 505.62 384.50
  L 513.15 374.27"
/>
<path stroke="#cdcecd" vector-effect="non-scaling-stroke" d="
  M 513.15 374.27
  L 542.10 335.45
  A 0.35 0.35 0.0 0 0 541.81 334.89
  Q 527.36 335.03 512.51 334.76
  Q 494.22 334.42 475.80 334.35
  C 474.49 334.35 473.21 333.85 472.00 334.41
  Q 471.52 334.64 471.02 334.44
  L 470.03 334.04
  A 1.06 1.05 7.5 0 0 468.59 335.14
  L 472.43 367.88"
/>
<path stroke="#e6e6e6" vector-effect="non-scaling-stroke" d="
  M 513.15 374.27
  Q 484.33 361.31 475.72 356.83
  Q 474.81 356.35 472.43 353.47
  Q 471.91 352.84 472.11 353.63
  Q 472.15 353.77 472.14 353.91
  Q 472.09 354.53 472.63 354.84
  Q 474.08 355.67 474.74 357.35
  Q 475.14 358.37 474.68 359.93
  Q 473.58 363.72 472.43 367.88"
/>
<path stroke="#e6e6e6" vector-effect="non-scaling-stroke" d="
  M 505.62 384.50
  L 483.23 363.99
  Q 482.53 363.34 482.01 364.14
  Q 479.98 367.28 478.87 371.53
  Q 478.79 371.84 478.49 371.98
  Q 477.91 372.26 477.97 371.61
  Q 478.12 370.18 478.85 368.98
  Q 479.12 368.53 479.12 368.02
  L 479.12 367.57
  Q 479.12 367.18 479.35 366.87
  Q 480.42 365.38 481.00 363.75
  Q 481.17 363.27 480.81 362.91
  L 477.17 359.28
  Q 475.90 358.02 475.99 359.80
  L 476.64 372.48
  Q 476.65 372.72 476.88 372.79
  Q 477.01 372.84 477.12 372.92
  Q 477.45 373.17 477.34 373.57
  C 476.72 375.74 477.50 377.52 477.37 379.62
  Q 477.16 383.32 477.72 386.88
  C 478.34 390.73 477.98 394.46 478.44 398.31
  Q 478.99 402.84 479.11 407.06
  Q 479.19 409.99 479.47 412.94
  Q 479.74 415.73 479.78 418.82"
/>
<path stroke="#b4b4b4" vector-effect="non-scaling-stroke" d="
  M 550.95 366.06
  L 555.84 388.75"
/>
<path stroke="#cdcecd" vector-effect="non-scaling-stroke" d="
  M 555.84 388.75
  L 559.90 408.99"
/>
<path stroke="#b4b4b4" vector-effect="non-scaling-stroke" d="
  M 559.90 408.99
  L 561.05 413.87"
/>
<path stroke="#cdcecd" vector-effect="non-scaling-stroke" d="
  M 561.05 413.87
  Q 561.30 416.95 561.82 418.98
  Q 561.94 419.48 561.68 419.76
  Q 561.30 420.17 561.17 419.63
  L 559.56 413.22"
/>
<path stroke="#b4b4b4" vector-effect="non-scaling-stroke" d="
  M 559.56 413.22
  L 558.86 408.71"
/>
<path stroke="#cdcecd" vector-effect="non-scaling-stroke" d="
  M 558.86 408.71
  L 555.35 392.87"
/>
<path stroke="#b4b4b4" vector-effect="non-scaling-stroke" d="
  M 555.35 392.87
  L 550.01 367.60"
/>
<path stroke="#cdcecd" vector-effect="non-scaling-stroke" d="
  M 550.01 367.60
  Q 547.08 353.11 543.69 337.75
  Q 543.67 337.63 543.55 337.61
  Q 543.40 337.58 543.26 337.58
  Q 543.13 337.58 543.11 337.71
  Q 542.99 338.63 542.73 339.70
  Q 537.34 362.04 532.16 384.40
  Q 532.05 384.89 532.37 385.28
  L 541.41 396.17"
/>
<path stroke="#b4b4b4" vector-effect="non-scaling-stroke" d="
  M 541.41 396.17
  L 551.43 408.84"
/>
<path stroke="#cdcecd" vector-effect="non-scaling-stroke" d="
  M 551.43 408.84
  L 560.10 419.77
  Q 560.43 420.19 560.93 420.39
  Q 561.63 420.67 561.89 421.38
  A 0.46 0.45 50.4 0 0 562.71 421.46
  L 566.44 415.05"
/>
<path stroke="#b4b4b4" vector-effect="non-scaling-stroke" d="
  M 566.44 415.05
  L 572.45 405.16"
/>
<path stroke="#cdcecd" vector-effect="non-scaling-stroke" d="
  M 572.45 405.16
  L 586.22 382.44"
/>
<path stroke="#b4b4b4" vector-effect="non-scaling-stroke" d="
  M 586.22 382.44
  L 598.68 361.93
  Q 599.29 360.92 598.22 360.42
  L 575.71 349.95"
/>
<path stroke="#cdcecd" vector-effect="non-scaling-stroke" d="
  M 575.71 349.95
  Q 560.28 342.66 545.09 335.70
  Q 544.86 335.59 544.69 335.40
  Q 544.60 335.29 544.44 335.26
  Q 544.08 335.18 544.14 335.54
  Q 544.23 336.10 544.54 336.56
  Q 544.82 336.97 544.92 337.45
  L 550.95 366.06"
/>
<path stroke="#e6e6e6" vector-effect="non-scaling-stroke" d="
  M 575.71 349.95
  Q 573.76 350.79 571.23 349.96
  Q 570.71 349.79 570.17 349.95
  Q 568.54 350.46 566.95 350.73
  C 564.70 351.13 563.77 353.24 562.21 354.69
  Q 557.32 359.26 552.52 364.66
  Q 552.26 364.95 552.11 365.32
  L 551.86 365.90
  Q 551.68 366.31 551.27 366.17
  L 550.95 366.06"
/>
<path stroke="#e6e6e6" vector-effect="non-scaling-stroke" d="
  M 586.22 382.44
  L 566.69 352.01
  A 0.62 0.62 0.0 0 0 565.57 352.19
  Q 564.29 357.08 563.12 362.15
  Q 563.09 362.26 561.19 369.23
  Q 560.30 372.50 559.51 377.00
  Q 558.71 381.57 555.84 388.75"
/>
<path stroke="#e6e6e6" vector-effect="non-scaling-stroke" d="
  M 572.45 405.16
  L 559.90 408.99"
/>
<path stroke="#e6e6e6" vector-effect="non-scaling-stroke" d="
  M 558.86 408.71
  Q 557.38 409.95 555.00 410.33
  A 0.73 0.73 0.0 0 0 554.57 411.54
  Q 556.60 413.79 559.56 413.22"
/>
<path stroke="#e6e6e6" vector-effect="non-scaling-stroke" d="
  M 561.05 413.87
  L 566.44 415.05"
/>
<path stroke="#e6e6e6" vector-effect="non-scaling-stroke" d="
  M 555.35 392.87
  L 551.43 408.84"
/>
<path stroke="#e6e6e6" vector-effect="non-scaling-stroke" d="
  M 550.01 367.60
  L 534.55 383.60
  Q 534.21 383.95 534.46 384.37
  L 541.41 396.17"
/>
<path stroke="#b4b4b4" vector-effect="non-scaling-stroke" d="
  M 514.03 374.95
  L 506.56 384.87"
/>
<path stroke="#cdcecd" vector-effect="non-scaling-stroke" d="
  M 506.56 384.87
  L 481.29 418.80
  Q 479.86 420.71 481.81 419.33
  L 529.49 385.46"
/>
<path stroke="#b4b4b4" vector-effect="non-scaling-stroke" d="
  M 529.49 385.46
  Q 531.07 384.98 531.43 382.56"
/>
<path stroke="#cdcecd" vector-effect="non-scaling-stroke" d="
  M 531.43 382.56
  L 542.09 338.29
  Q 542.43 336.89 541.57 338.05
  L 514.03 374.95"
/>
<path stroke="#e6e6e6" vector-effect="non-scaling-stroke" d="
  M 531.43 382.56
  L 514.03 374.95"
/>
<path stroke="#e6e6e6" vector-effect="non-scaling-stroke" d="
  M 529.49 385.46
  L 512.26 389.86
  Q 511.76 389.98 511.39 389.62
  L 506.56 384.87"
/>
<path stroke="#b4b4b4" vector-effect="non-scaling-stroke" d="
  M 364.05 403.78
  L 386.52 397.66"
/>
<path stroke="#cdcecd" vector-effect="non-scaling-stroke" d="
  M 386.52 397.66
  L 422.30 387.30
  Q 423.64 386.92 422.27 386.65
  L 313.42 365.06
  A 0.35 0.34 -78.2 0 0 313.02 365.33
  L 301.92 421.51
  Q 301.77 422.28 302.52 422.06
  L 364.05 403.78"
/>
<path stroke="#e6e6e6" vector-effect="non-scaling-stroke" d="
  M 386.52 397.66
  L 387.36 392.33
  Q 387.64 390.54 386.33 391.79
  C 385.01 393.04 382.63 393.70 381.24 394.44
  Q 376.43 396.99 368.88 400.37
  Q 366.46 401.46 364.05 403.78"
/>
<path stroke="#cdcecd" vector-effect="non-scaling-stroke" d="
  M 300.29 421.93
  A 0.31 0.31 0.0 0 0 300.77 421.73
  L 311.88 365.64
  A 0.31 0.31 0.0 0 0 311.50 365.28
  L 242.17 382.28
  A 0.31 0.31 0.0 0 0 242.07 382.84
  L 300.29 421.93"
/>
<path stroke="#e6e6e6" vector-effect="non-scaling-stroke" d="
  M 599.74 359.82
  L 599.81 346.66
  A 0.29 0.29 0.0 0 0 599.48 346.37
  L 577.18 349.31"
/>
<path stroke="#cdcecd" vector-effect="non-scaling-stroke" d="
  M 419.99 357.51
  Q 420.09 358.42 420.95 358.56
  A 0.33 0.33 0.0 0 0 421.31 358.11
  Q 421.06 357.49 420.51 357.17
  Q 419.92 356.83 419.99 357.51"
/>
<path stroke="#e6e6e6" vector-effect="non-scaling-stroke" d="
  M 567.63 415.63
  Q 581.52 419.25 595.27 422.40
  Q 597.24 422.86 599.12 422.85
  A 0.62 0.62 0.0 0 0 599.74 422.23
  L 599.77 402.79
  Q 599.77 402.17 599.37 401.69
  L 596.31 398.11
  A 0.86 0.85 61.0 0 0 595.40 397.84
  Q 589.83 399.55 584.15 401.30
  Q 581.98 401.96 579.80 402.59
  Q 576.81 403.46 573.87 404.98"
/>
<path stroke="#e6e6e6" vector-effect="non-scaling-stroke" d="
  M 587.02 383.32
  L 595.50 397.00
  A 0.35 0.35 0.0 0 0 596.14 396.90
  Q 597.38 391.51 598.69 385.98
  Q 599.77 381.40 599.76 375.36
  Q 599.75 369.29 599.54 362.90"
/>
<path stroke="#e6e6e6" vector-effect="non-scaling-stroke" d="
  M 545.18 422.29
  A 0.33 0.33 0.0 0 0 545.47 422.77
  L 552.27 422.79
  A 0.33 0.33 0.0 0 0 552.59 422.40
  L 550.87 412.66
  A 0.33 0.33 0.0 0 0 550.25 412.56
  L 545.18 422.29"
/>
<path stroke="#e6e6e6" vector-effect="non-scaling-stroke" d="
  M 430.46 390.89
  L 402.64 421.88
  A 0.41 0.41 0.0 0 0 402.66 422.44
  Q 403.20 422.96 404.00 422.85
  Q 405.55 422.64 407.90 423.00"
/>
<path stroke="#e6e6e6" vector-effect="non-scaling-stroke" d="
  M 384.62 423.00
  L 386.55 398.81"
/>
<path stroke="#e6e6e6" vector-effect="non-scaling-stroke" d="
  M 437.18 395.46
  Q 444.74 403.17 452.07 410.43
  Q 453.37 411.71 455.05 412.66
  Q 455.46 412.89 455.78 412.53
  L 458.07 410.00"
/>
<path stroke="#e6e6e6" vector-effect="non-scaling-stroke" d="
  M 475.75 422.46
  L 472.23 423.00"
/>
<path stroke="#e6e6e6" vector-effect="non-scaling-stroke" d="
  M 469.15 423.00
  L 460.97 423.00"
/>
<path stroke="#e6e6e6" vector-effect="non-scaling-stroke" d="
  M 460.39 423.00
  L 456.12 415.31
  Q 455.88 414.88 455.40 415.04
  Q 449.75 416.94 444.77 420.24
  Q 442.05 422.04 434.60 423.00"
/>
<path stroke="#e6e6e6" vector-effect="non-scaling-stroke" d="
  M 376.14 423.00
  L 355.87 423.00"
/>
<path stroke="#e6e6e6" vector-effect="non-scaling-stroke" d="
  M 347.41 423.00
  Q 345.53 421.87 343.87 422.22
  Q 343.01 422.41 343.41 421.64
  Q 343.50 421.47 343.50 421.28
  Q 343.52 420.57 342.85 420.34
  Q 341.66 419.92 340.79 418.95
  A 2.28 2.25 75.1 0 0 339.65 418.28
  Q 338.75 418.06 338.10 417.36
  Q 337.57 416.77 338.29 416.45
  Q 344.40 413.73 350.07 410.38
  Q 350.69 410.02 351.49 409.89
  Q 353.98 409.50 352.59 408.63"
/>
</g>
<path fill="#ffffff" d="
  M 0.00 0.00
  L 600.00 0.00
  L 600.00 275.53
  Q 588.19 235.18 575.75 194.59
  Q 575.41 193.46 574.80 192.48
  Q 573.25 189.98 575.59 191.75
  Q 577.81 193.43 579.95 195.26
  Q 589.69 203.61 599.28 211.48
  Q 599.45 211.61 599.59 211.45
  L 599.76 211.24
  A 0.35 0.35 0.0 0 0 599.71 210.75
  L 574.61 189.63
  A 1.23 1.23 0.0 0 1 574.22 188.39
  L 600.18 87.49
  Q 600.24 87.28 600.03 87.23
  L 599.76 87.16
  Q 599.26 87.03 599.12 87.54
  L 573.02 188.64
  Q 572.92 189.04 572.58 189.29
  L 516.53 230.56
  Q 516.13 230.86 515.95 231.50
  L 496.22 305.11
  A 1.09 1.08 -78.6 0 1 495.04 305.90
  Q 492.96 305.65 490.87 306.15
  C 489.27 306.53 487.93 305.73 486.33 306.20
  Q 484.89 306.62 483.37 306.73
  Q 437.79 310.09 391.92 313.53
  Q 391.66 313.55 391.68 313.80
  L 391.73 314.41
  Q 391.74 314.61 391.95 314.60
  Q 433.43 311.55 480.20 307.83
  C 481.94 307.69 483.78 307.95 485.45 307.68
  C 488.35 307.21 491.20 307.28 494.06 306.73
  Q 495.44 306.46 494.43 307.43
  L 468.19 332.88
  A 1.01 1.00 30.9 0 1 467.20 333.12
  Q 463.90 332.12 460.34 331.30
  C 459.15 331.02 457.96 331.20 456.92 330.45
  Q 456.52 330.16 456.03 330.12
  Q 454.84 330.02 453.72 329.76
  Q 423.03 322.45 391.13 314.78
  Q 391.03 314.76 390.95 314.69
  Q 390.82 314.57 390.87 314.36
  A 0.33 0.32 12.7 0 0 390.61 313.95
  Q 387.90 313.54 385.89 314.87
  Q 350.72 338.22 315.10 362.15
  Q 312.68 363.78 309.61 364.54
  Q 275.40 372.96 241.62 381.26
  A 9.23 9.08 21.3 0 0 238.76 382.49
  L 177.04 422.26
  Q 176.87 422.37 176.99 422.52
  L 177.22 422.84
  A 0.44 0.44 0.0 0 0 177.81 422.95
  L 239.55 383.26
  A 1.43 1.42 -44.1 0 1 241.11 383.28
  L 300.32 423.00
  L 0.00 423.00
  L 0.00 0.00
  Z"
/>
<path fill="#9b9c9b" d="
  M 600.00 275.53
  L 600.00 277.07
  L 544.93 333.52
  A 0.55 0.55 0.0 0 0 545.09 334.40
  L 577.18 349.31
  L 599.74 359.82
  Q 599.80 360.03 600.00 360.26
  L 600.00 361.86
  L 599.54 362.90
  L 587.02 383.32
  L 573.87 404.98
  L 567.63 415.63
  L 562.63 423.00
  L 561.90 423.00
  L 531.70 386.05
  A 0.69 0.69 0.0 0 0 530.76 385.92
  L 478.40 423.00
  L 476.66 423.00
  L 475.75 422.46
  L 458.07 410.00
  L 437.18 395.46
  L 430.46 390.89
  Q 428.68 388.91 425.85 387.56
  Q 425.39 387.34 424.90 387.48
  L 386.55 398.81
  L 352.59 408.63
  L 302.54 423.00
  L 300.32 423.00
  L 241.11 383.28
  A 1.43 1.42 -44.1 0 0 239.55 383.26
  L 177.81 422.95
  A 0.44 0.44 0.0 0 1 177.22 422.84
  L 176.99 422.52
  Q 176.87 422.37 177.04 422.26
  L 238.76 382.49
  A 9.23 9.08 21.3 0 1 241.62 381.26
  Q 275.40 372.96 309.61 364.54
  Q 312.68 363.78 315.10 362.15
  Q 350.72 338.22 385.89 314.87
  Q 387.90 313.54 390.61 313.95
  A 0.33 0.32 12.7 0 1 390.87 314.36
  Q 390.82 314.57 390.95 314.69
  Q 391.03 314.76 391.13 314.78
  Q 423.03 322.45 453.72 329.76
  Q 454.84 330.02 456.03 330.12
  Q 456.52 330.16 456.92 330.45
  C 457.96 331.20 459.15 331.02 460.34 331.30
  Q 463.90 332.12 467.20 333.12
  A 1.01 1.00 30.9 0 0 468.19 332.88
  L 494.43 307.43
  Q 495.44 306.46 494.06 306.73
  C 491.20 307.28 488.35 307.21 485.45 307.68
  C 483.78 307.95 481.94 307.69 480.20 307.83
  Q 433.43 311.55 391.95 314.60
  Q 391.74 314.61 391.73 314.41
  L 391.68 313.80
  Q 391.66 313.55 391.92 313.53
  Q 437.79 310.09 483.37 306.73
  Q 484.89 306.62 486.33 306.20
  C 487.93 305.73 489.27 306.53 490.87 306.15
  Q 492.96 305.65 495.04 305.90
  A 1.09 1.08 -78.6 0 0 496.22 305.11
  L 515.95 231.50
  Q 516.13 230.86 516.53 230.56
  L 572.58 189.29
  Q 572.92 189.04 573.02 188.64
  L 599.12 87.54
  Q 599.26 87.03 599.76 87.16
  L 600.03 87.23
  Q 600.24 87.28 600.18 87.49
  L 574.22 188.39
  A 1.23 1.23 0.0 0 0 574.61 189.63
  L 599.71 210.75
  A 0.35 0.35 0.0 0 1 599.76 211.24
  L 599.59 211.45
  Q 599.45 211.61 599.28 211.48
  Q 589.69 203.61 579.95 195.26
  Q 577.81 193.43 575.59 191.75
  Q 573.25 189.98 574.80 192.48
  Q 575.41 193.46 575.75 194.59
  Q 588.19 235.18 600.00 275.53
  Z
  M 573.29 190.47
  A 0.30 0.30 0.0 0 0 572.83 190.31
  L 517.96 230.71
  A 0.30 0.30 0.0 0 0 518.00 231.22
  L 598.50 274.91
  A 0.30 0.30 0.0 0 0 598.93 274.56
  L 573.29 190.47
  Z
  M 598.47 276.09
  L 517.75 232.35
  Q 516.99 231.94 517.37 232.71
  C 518.39 234.76 518.76 236.99 519.33 239.21
  Q 523.56 255.68 528.05 272.47
  Q 528.25 273.21 528.43 273.94
  Q 530.77 283.33 533.29 292.67
  C 536.90 306.05 539.94 319.37 543.84 332.42
  A 0.45 0.45 0.0 0 0 544.59 332.61
  L 598.62 277.11
  Q 599.22 276.50 598.47 276.09
  Z
  M 534.18 300.36
  Q 528.48 278.84 523.10 257.98
  C 522.42 255.35 521.55 252.87 520.95 250.22
  Q 519.25 242.69 516.79 234.12
  Q 516.42 232.84 516.19 234.16
  Q 515.64 237.29 514.77 240.51
  Q 506.38 271.50 498.12 302.53
  C 497.86 303.53 498.02 304.47 497.28 305.36
  Q 496.92 305.79 497.41 306.08
  L 542.08 332.74
  A 0.36 0.36 0.0 0 0 542.61 332.34
  Q 542.55 332.14 542.39 331.99
  A 0.80 0.71 -76.7 0 1 542.19 331.62
  Q 538.77 317.63 534.18 300.36
  Z
  M 516.64 333.45
  Q 527.70 333.68 536.76 333.71
  Q 538.78 333.72 540.58 334.12
  Q 540.91 334.20 541.07 333.90
  Q 541.16 333.75 541.09 333.59
  Q 540.97 333.29 540.69 333.13
  Q 518.51 320.00 497.20 307.13
  A 1.04 1.04 0.0 0 0 495.87 307.33
  Q 492.13 311.60 487.90 315.34
  Q 483.34 319.36 479.72 322.96
  Q 474.74 327.91 470.00 332.45
  Q 469.21 333.22 470.31 333.21
  Q 493.80 333.00 516.64 333.45
  Z
  M 460.58 401.73
  L 475.64 419.73
  Q 476.21 420.41 476.23 419.52
  Q 476.32 415.25 475.58 410.83
  Q 475.16 408.34 475.01 405.89
  Q 474.86 403.41 474.57 400.93
  Q 473.88 395.13 473.74 393.53
  Q 472.77 382.89 471.03 371.66
  Q 471.28 369.25 470.90 366.20
  C 469.79 357.22 469.00 348.24 467.90 339.45
  C 467.69 337.77 468.08 336.22 467.44 334.61
  Q 467.25 334.11 466.73 333.99
  Q 429.74 325.12 392.74 316.30
  Q 391.26 315.95 390.47 315.56
  Q 387.98 314.32 389.72 316.44
  Q 416.75 349.50 437.66 374.56
  Q 448.92 388.04 460.58 401.73
  Z
  M 351.34 371.48
  Q 384.56 378.02 420.02 385.09
  Q 420.73 385.23 421.51 385.24
  Q 422.54 385.27 422.98 385.57
  Q 425.36 387.20 424.01 384.65
  Q 405.93 350.43 387.77 316.00
  A 0.87 0.87 0.0 0 0 386.52 315.68
  L 314.54 363.74
  Q 314.13 364.02 314.50 364.34
  Q 314.72 364.53 314.97 364.39
  Q 315.23 364.25 315.52 364.31
  Q 333.75 368.01 351.34 371.48
  Z
  M 458.49 409.05
  L 473.08 419.44
  Q 474.39 420.37 473.37 419.13
  L 460.43 403.20
  L 391.36 320.04
  Q 391.28 319.94 391.16 319.94
  Q 390.97 319.94 390.94 320.09
  Q 390.91 320.24 390.99 320.37
  Q 408.09 352.48 425.16 384.65
  Q 426.15 386.53 428.01 387.83
  Q 443.21 398.41 458.49 409.05
  Z
  M 472.43 367.88
  Q 473.65 381.40 475.31 395.44
  Q 475.56 397.51 475.68 399.58
  Q 475.79 401.68 476.12 403.73
  Q 476.62 406.82 476.73 409.80
  Q 476.93 415.08 477.93 419.94
  Q 478.31 421.72 479.13 420.10
  L 479.78 418.82
  L 505.62 384.50
  L 513.15 374.27
  L 542.10 335.45
  A 0.35 0.35 0.0 0 0 541.81 334.89
  Q 527.36 335.03 512.51 334.76
  Q 494.22 334.42 475.80 334.35
  C 474.49 334.35 473.21 333.85 472.00 334.41
  Q 471.52 334.64 471.02 334.44
  L 470.03 334.04
  A 1.06 1.05 7.5 0 0 468.59 335.14
  L 472.43 367.88
  Z
  M 550.95 366.06
  L 555.84 388.75
  L 559.90 408.99
  L 561.05 413.87
  Q 561.30 416.95 561.82 418.98
  Q 561.94 419.48 561.68 419.76
  Q 561.30 420.17 561.17 419.63
  L 559.56 413.22
  L 558.86 408.71
  L 555.35 392.87
  L 550.01 367.60
  Q 547.08 353.11 543.69 337.75
  Q 543.67 337.63 543.55 337.61
  Q 543.40 337.58 543.26 337.58
  Q 543.13 337.58 543.11 337.71
  Q 542.99 338.63 542.73 339.70
  Q 537.34 362.04 532.16 384.40
  Q 532.05 384.89 532.37 385.28
  L 541.41 396.17
  L 551.43 408.84
  L 560.10 419.77
  Q 560.43 420.19 560.93 420.39
  Q 561.63 420.67 561.89 421.38
  A 0.46 0.45 50.4 0 0 562.71 421.46
  L 566.44 415.05
  L 572.45 405.16
  L 586.22 382.44
  L 598.68 361.93
  Q 599.29 360.92 598.22 360.42
  L 575.71 349.95
  Q 560.28 342.66 545.09 335.70
  Q 544.86 335.59 544.69 335.40
  Q 544.60 335.29 544.44 335.26
  Q 544.08 335.18 544.14 335.54
  Q 544.23 336.10 544.54 336.56
  Q 544.82 336.97 544.92 337.45
  L 550.95 366.06
  Z
  M 514.03 374.95
  L 506.56 384.87
  L 481.29 418.80
  Q 479.86 420.71 481.81 419.33
  L 529.49 385.46
  Q 531.07 384.98 531.43 382.56
  L 542.09 338.29
  Q 542.43 336.89 541.57 338.05
  L 514.03 374.95
  Z
  M 364.05 403.78
  L 386.52 397.66
  L 422.30 387.30
  Q 423.64 386.92 422.27 386.65
  L 313.42 365.06
  A 0.35 0.34 -78.2 0 0 313.02 365.33
  L 301.92 421.51
  Q 301.77 422.28 302.52 422.06
  L 364.05 403.78
  Z
  M 300.29 421.93
  A 0.31 0.31 0.0 0 0 300.77 421.73
  L 311.88 365.64
  A 0.31 0.31 0.0 0 0 311.50 365.28
  L 242.17 382.28
  A 0.31 0.31 0.0 0 0 242.07 382.84
  L 300.29 421.93
  Z"
/>
<path fill="#ffffff" d="
  M 573.29 190.47
  L 598.93 274.56
  A 0.30 0.30 0.0 0 1 598.50 274.91
  L 518.00 231.22
  A 0.30 0.30 0.0 0 1 517.96 230.71
  L 572.83 190.31
  A 0.30 0.30 0.0 0 1 573.29 190.47
  Z"
/>
<path fill="#ffffff" d="
  M 517.75 232.35
  L 598.47 276.09
  Q 599.22 276.50 598.62 277.11
  L 544.59 332.61
  A 0.45 0.45 0.0 0 1 543.84 332.42
  C 539.94 319.37 536.90 306.05 533.29 292.67
  Q 530.77 283.33 528.43 273.94
  Q 528.25 273.21 528.05 272.47
  Q 523.56 255.68 519.33 239.21
  C 518.76 236.99 518.39 234.76 517.37 232.71
  Q 516.99 231.94 517.75 232.35
  Z"
/>
<path fill="#ffffff" d="
  M 534.18 300.36
  Q 538.77 317.63 542.19 331.62
  A 0.80 0.71 -76.7 0 0 542.39 331.99
  Q 542.55 332.14 542.61 332.34
  A 0.36 0.36 0.0 0 1 542.08 332.74
  L 497.41 306.08
  Q 496.92 305.79 497.28 305.36
  C 498.02 304.47 497.86 303.53 498.12 302.53
  Q 506.38 271.50 514.77 240.51
  Q 515.64 237.29 516.19 234.16
  Q 516.42 232.84 516.79 234.12
  Q 519.25 242.69 520.95 250.22
  C 521.55 252.87 522.42 255.35 523.10 257.98
  Q 528.48 278.84 534.18 300.36
  Z"
/>
<path fill="#ffffff" d="
  M 600.00 277.07
  L 600.00 360.26
  Q 599.80 360.03 599.74 359.82
  L 599.81 346.66
  A 0.29 0.29 0.0 0 0 599.48 346.37
  L 577.18 349.31
  L 545.09 334.40
  A 0.55 0.55 0.0 0 1 544.93 333.52
  L 600.00 277.07
  Z"
/>
<path fill="#ffffff" d="
  M 516.64 333.45
  Q 493.80 333.00 470.31 333.21
  Q 469.21 333.22 470.00 332.45
  Q 474.74 327.91 479.72 322.96
  Q 483.34 319.36 487.90 315.34
  Q 492.13 311.60 495.87 307.33
  A 1.04 1.04 0.0 0 1 497.20 307.13
  Q 518.51 320.00 540.69 333.13
  Q 540.97 333.29 541.09 333.59
  Q 541.16 333.75 541.07 333.90
  Q 540.91 334.20 540.58 334.12
  Q 538.78 333.72 536.76 333.71
  Q 527.70 333.68 516.64 333.45
  Z"
/>
<path fill="#ffffff" d="
  M 471.03 371.66
  L 460.58 401.73
  Q 448.92 388.04 437.66 374.56
  Q 416.75 349.50 389.72 316.44
  Q 387.98 314.32 390.47 315.56
  Q 391.26 315.95 392.74 316.30
  Q 429.74 325.12 466.73 333.99
  Q 467.25 334.11 467.44 334.61
  C 468.08 336.22 467.69 337.77 467.90 339.45
  C 469.00 348.24 469.79 357.22 470.90 366.20
  Q 471.28 369.25 471.03 371.66
  Z"
/>
<path fill="#ffffff" d="
  M 351.34 371.48
  Q 333.75 368.01 315.52 364.31
  Q 315.23 364.25 314.97 364.39
  Q 314.72 364.53 314.50 364.34
  Q 314.13 364.02 314.54 363.74
  L 386.52 315.68
  A 0.87 0.87 0.0 0 1 387.77 316.00
  Q 405.93 350.43 424.01 384.65
  Q 425.36 387.20 422.98 385.57
  Q 422.54 385.27 421.51 385.24
  Q 420.73 385.23 420.02 385.09
  Q 384.56 378.02 351.34 371.48
  Z"
/>
<path fill="#ffffff" d="
  M 460.43 403.20
  Q 460.30 403.87 460.03 403.94
  A 1.04 1.04 0.0 0 1 459.02 403.65
  Q 455.28 399.66 452.00 395.29
  C 450.23 392.92 447.92 391.05 446.20 388.58
  Q 441.65 382.06 436.59 376.58
  Q 432.97 372.66 429.29 368.12
  Q 425.74 363.75 421.99 359.38
  Q 421.87 359.25 421.72 359.36
  L 421.71 359.37
  Q 421.59 359.47 421.68 359.60
  Q 425.08 364.40 428.98 368.61
  C 430.58 370.33 431.73 372.24 433.29 373.90
  Q 435.07 375.80 436.30 377.71
  Q 437.87 380.14 439.19 381.55
  Q 444.00 386.73 448.79 393.04
  C 449.61 394.12 450.83 394.84 451.44 395.97
  Q 452.16 397.30 453.20 398.41
  Q 455.65 401.00 457.43 403.68
  Q 457.73 404.14 458.24 404.36
  Q 458.69 404.56 458.95 404.95
  Q 459.25 405.41 459.04 405.92
  Q 458.45 407.37 458.49 409.05
  Q 443.21 398.41 428.01 387.83
  Q 426.15 386.53 425.16 384.65
  Q 408.09 352.48 390.99 320.37
  Q 390.91 320.24 390.94 320.09
  Q 390.97 319.94 391.16 319.94
  Q 391.28 319.94 391.36 320.04
  L 460.43 403.20
  Z
  M 419.99 357.51
  Q 420.09 358.42 420.95 358.56
  A 0.33 0.33 0.0 0 0 421.31 358.11
  Q 421.06 357.49 420.51 357.17
  Q 419.92 356.83 419.99 357.51
  Z"
/>
<path fill="#ffffff" d="
  M 513.15 374.27
  Q 484.33 361.31 475.72 356.83
  Q 474.81 356.35 472.43 353.47
  Q 471.91 352.84 472.11 353.63
  Q 472.15 353.77 472.14 353.91
  Q 472.09 354.53 472.63 354.84
  Q 474.08 355.67 474.74 357.35
  Q 475.14 358.37 474.68 359.93
  Q 473.58 363.72 472.43 367.88
  L 468.59 335.14
  A 1.06 1.05 7.5 0 1 470.03 334.04
  L 471.02 334.44
  Q 471.52 334.64 472.00 334.41
  C 473.21 333.85 474.49 334.35 475.80 334.35
  Q 494.22 334.42 512.51 334.76
  Q 527.36 335.03 541.81 334.89
  A 0.35 0.35 0.0 0 1 542.10 335.45
  L 513.15 374.27
  Z"
/>
<path fill="#ffffff" d="
  M 575.71 349.95
  Q 573.76 350.79 571.23 349.96
  Q 570.71 349.79 570.17 349.95
  Q 568.54 350.46 566.95 350.73
  C 564.70 351.13 563.77 353.24 562.21 354.69
  Q 557.32 359.26 552.52 364.66
  Q 552.26 364.95 552.11 365.32
  L 551.86 365.90
  Q 551.68 366.31 551.27 366.17
  L 550.95 366.06
  L 544.92 337.45
  Q 544.82 336.97 544.54 336.56
  Q 544.23 336.10 544.14 335.54
  Q 544.08 335.18 544.44 335.26
  Q 544.60 335.29 544.69 335.40
  Q 544.86 335.59 545.09 335.70
  Q 560.28 342.66 575.71 349.95
  Z"
/>
<path fill="#ffffff" d="
  M 531.43 382.56
  L 514.03 374.95
  L 541.57 338.05
  Q 542.43 336.89 542.09 338.29
  L 531.43 382.56
  Z"
/>
<path fill="#ffffff" d="
  M 550.01 367.60
  L 534.55 383.60
  Q 534.21 383.95 534.46 384.37
  L 541.41 396.17
  L 532.37 385.28
  Q 532.05 384.89 532.16 384.40
  Q 537.34 362.04 542.73 339.70
  Q 542.99 338.63 543.11 337.71
  Q 543.13 337.58 543.26 337.58
  Q 543.40 337.58 543.55 337.61
  Q 543.67 337.63 543.69 337.75
  Q 547.08 353.11 550.01 367.60
  Z"
/>
<path fill="#cccccc" d="
  M 599.74 359.82
  L 577.18 349.31
  L 599.48 346.37
  A 0.29 0.29 0.0 0 1 599.81 346.66
  L 599.74 359.82
  Z"
/>
<path fill="#cccccc" d="
  M 575.71 349.95
  L 598.22 360.42
  Q 599.29 360.92 598.68 361.93
  L 586.22 382.44
  L 566.69 352.01
  A 0.62 0.62 0.0 0 0 565.57 352.19
  Q 564.29 357.08 563.12 362.15
  Q 563.09 362.26 561.19 369.23
  Q 560.30 372.50 559.51 377.00
  Q 558.71 381.57 555.84 388.75
  L 550.95 366.06
  L 551.27 366.17
  Q 551.68 366.31 551.86 365.90
  L 552.11 365.32
  Q 552.26 364.95 552.52 364.66
  Q 557.32 359.26 562.21 354.69
  C 563.77 353.24 564.70 351.13 566.95 350.73
  Q 568.54 350.46 570.17 349.95
  Q 570.71 349.79 571.23 349.96
  Q 573.76 350.79 575.71 349.95
  Z"
/>
<path fill="#ffffff" d="
  M 586.22 382.44
  L 572.45 405.16
  L 559.90 408.99
  L 555.84 388.75
  Q 558.71 381.57 559.51 377.00
  Q 560.30 372.50 561.19 369.23
  Q 563.09 362.26 563.12 362.15
  Q 564.29 357.08 565.57 352.19
  A 0.62 0.62 0.0 0 1 566.69 352.01
  L 586.22 382.44
  Z"
/>
<path fill="#cccccc" d="
  M 513.15 374.27
  L 505.62 384.50
  L 483.23 363.99
  Q 482.53 363.34 482.01 364.14
  Q 479.98 367.28 478.87 371.53
  Q 478.79 371.84 478.49 371.98
  Q 477.91 372.26 477.97 371.61
  Q 478.12 370.18 478.85 368.98
  Q 479.12 368.53 479.12 368.02
  L 479.12 367.57
  Q 479.12 367.18 479.35 366.87
  Q 480.42 365.38 481.00 363.75
  Q 481.17 363.27 480.81 362.91
  L 477.17 359.28
  Q 475.90 358.02 475.99 359.80
  L 476.64 372.48
  Q 476.65 372.72 476.88 372.79
  Q 477.01 372.84 477.12 372.92
  Q 477.45 373.17 477.34 373.57
  C 476.72 375.74 477.50 377.52 477.37 379.62
  Q 477.16 383.32 477.72 386.88
  C 478.34 390.73 477.98 394.46 478.44 398.31
  Q 478.99 402.84 479.11 407.06
  Q 479.19 409.99 479.47 412.94
  Q 479.74 415.73 479.78 418.82
  L 479.13 420.10
  Q 478.31 421.72 477.93 419.94
  Q 476.93 415.08 476.73 409.80
  Q 476.62 406.82 476.12 403.73
  Q 475.79 401.68 475.68 399.58
  Q 475.56 397.51 475.31 395.44
  Q 473.65 381.40 472.43 367.88
  Q 473.58 363.72 474.68 359.93
  Q 475.14 358.37 474.74 357.35
  Q 474.08 355.67 472.63 354.84
  Q 472.09 354.53 472.14 353.91
  Q 472.15 353.77 472.11 353.63
  Q 471.91 352.84 472.43 353.47
  Q 474.81 356.35 475.72 356.83
  Q 484.33 361.31 513.15 374.27
  Z"
/>
<path fill="#9b9c9b" d="
  M 419.99 357.51
  Q 419.92 356.83 420.51 357.17
  Q 421.06 357.49 421.31 358.11
  A 0.33 0.33 0.0 0 1 420.95 358.56
  Q 420.09 358.42 419.99 357.51
  Z"
/>
<path fill="#ffffff" d="
  M 505.62 384.50
  L 479.78 418.82
  Q 479.74 415.73 479.47 412.94
  Q 479.19 409.99 479.11 407.06
  Q 478.99 402.84 478.44 398.31
  C 477.98 394.46 478.34 390.73 477.72 386.88
  Q 477.16 383.32 477.37 379.62
  C 477.50 377.52 476.72 375.74 477.34 373.57
  Q 477.45 373.17 477.12 372.92
  Q 477.01 372.84 476.88 372.79
  Q 476.65 372.72 476.64 372.48
  L 475.99 359.80
  Q 475.90 358.02 477.17 359.28
  L 480.81 362.91
  Q 481.17 363.27 481.00 363.75
  Q 480.42 365.38 479.35 366.87
  Q 479.12 367.18 479.12 367.57
  L 479.12 368.02
  Q 479.12 368.53 478.85 368.98
  Q 478.12 370.18 477.97 371.61
  Q 477.91 372.26 478.49 371.98
  Q 478.79 371.84 478.87 371.53
  Q 479.98 367.28 482.01 364.14
  Q 482.53 363.34 483.23 363.99
  L 505.62 384.50
  Z"
/>
<path fill="#cccccc" d="
  M 460.43 403.20
  L 473.37 419.13
  Q 474.39 420.37 473.08 419.44
  L 458.49 409.05
  Q 458.45 407.37 459.04 405.92
  Q 459.25 405.41 458.95 404.95
  Q 458.69 404.56 458.24 404.36
  Q 457.73 404.14 457.43 403.68
  Q 455.65 401.00 453.20 398.41
  Q 452.16 397.30 451.44 395.97
  C 450.83 394.84 449.61 394.12 448.79 393.04
  Q 444.00 386.73 439.19 381.55
  Q 437.87 380.14 436.30 377.71
  Q 435.07 375.80 433.29 373.90
  C 431.73 372.24 430.58 370.33 428.98 368.61
  Q 425.08 364.40 421.68 359.60
  Q 421.59 359.47 421.71 359.37
  L 421.72 359.36
  Q 421.87 359.25 421.99 359.38
  Q 425.74 363.75 429.29 368.12
  Q 432.97 372.66 436.59 376.58
  Q 441.65 382.06 446.20 388.58
  C 447.92 391.05 450.23 392.92 452.00 395.29
  Q 455.28 399.66 459.02 403.65
  A 1.04 1.04 0.0 0 0 460.03 403.94
  Q 460.30 403.87 460.43 403.20
  Z"
/>
<path fill="#ffffff" d="
  M 600.00 361.86
  L 600.00 423.00
  L 562.63 423.00
  L 567.63 415.63
  Q 581.52 419.25 595.27 422.40
  Q 597.24 422.86 599.12 422.85
  A 0.62 0.62 0.0 0 0 599.74 422.23
  L 599.77 402.79
  Q 599.77 402.17 599.37 401.69
  L 596.31 398.11
  A 0.86 0.85 61.0 0 0 595.40 397.84
  Q 589.83 399.55 584.15 401.30
  Q 581.98 401.96 579.80 402.59
  Q 576.81 403.46 573.87 404.98
  L 587.02 383.32
  L 595.50 397.00
  A 0.35 0.35 0.0 0 0 596.14 396.90
  Q 597.38 391.51 598.69 385.98
  Q 599.77 381.40 599.76 375.36
  Q 599.75 369.29 599.54 362.90
  L 600.00 361.86
  Z"
/>
<path fill="#cccccc" d="
  M 599.54 362.90
  Q 599.75 369.29 599.76 375.36
  Q 599.77 381.40 598.69 385.98
  Q 597.38 391.51 596.14 396.90
  A 0.35 0.35 0.0 0 1 595.50 397.00
  L 587.02 383.32
  L 599.54 362.90
  Z"
/>
<path fill="#ffffff" d="
  M 386.52 397.66
  L 387.36 392.33
  Q 387.64 390.54 386.33 391.79
  C 385.01 393.04 382.63 393.70 381.24 394.44
  Q 376.43 396.99 368.88 400.37
  Q 366.46 401.46 364.05 403.78
  L 302.52 422.06
  Q 301.77 422.28 301.92 421.51
  L 313.02 365.33
  A 0.35 0.34 -78.2 0 1 313.42 365.06
  L 422.27 386.65
  Q 423.64 386.92 422.30 387.30
  L 386.52 397.66
  Z"
/>
<path fill="#ffffff" d="
  M 300.29 421.93
  L 242.07 382.84
  A 0.31 0.31 0.0 0 1 242.17 382.28
  L 311.50 365.28
  A 0.31 0.31 0.0 0 1 311.88 365.64
  L 300.77 421.73
  A 0.31 0.31 0.0 0 1 300.29 421.93
  Z"
/>
<path fill="#cccccc" d="
  M 550.01 367.60
  L 555.35 392.87
  L 551.43 408.84
  L 541.41 396.17
  L 534.46 384.37
  Q 534.21 383.95 534.55 383.60
  L 550.01 367.60
  Z"
/>
<path fill="#cccccc" d="
  M 471.03 371.66
  Q 472.77 382.89 473.74 393.53
  Q 473.88 395.13 474.57 400.93
  Q 474.86 403.41 475.01 405.89
  Q 475.16 408.34 475.58 410.83
  Q 476.32 415.25 476.23 419.52
  Q 476.21 420.41 475.64 419.73
  L 460.58 401.73
  L 471.03 371.66
  Z"
/>
<path fill="#cccccc" d="
  M 531.43 382.56
  Q 531.07 384.98 529.49 385.46
  L 512.26 389.86
  Q 511.76 389.98 511.39 389.62
  L 506.56 384.87
  L 514.03 374.95
  L 531.43 382.56
  Z"
/>
<path fill="#ffffff" d="
  M 506.56 384.87
  L 511.39 389.62
  Q 511.76 389.98 512.26 389.86
  L 529.49 385.46
  L 481.81 419.33
  Q 479.86 420.71 481.29 418.80
  L 506.56 384.87
  Z"
/>
<path fill="#ffffff" d="
  M 561.90 423.00
  L 478.40 423.00
  L 530.76 385.92
  A 0.69 0.69 0.0 0 1 531.70 386.05
  L 561.90 423.00
  Z
  M 545.18 422.29
  A 0.33 0.33 0.0 0 0 545.47 422.77
  L 552.27 422.79
  A 0.33 0.33 0.0 0 0 552.59 422.40
  L 550.87 412.66
  A 0.33 0.33 0.0 0 0 550.25 412.56
  L 545.18 422.29
  Z"
/>
<path fill="#ffffff" d="
  M 430.46 390.89
  L 402.64 421.88
  A 0.41 0.41 0.0 0 0 402.66 422.44
  Q 403.20 422.96 404.00 422.85
  Q 405.55 422.64 407.90 423.00
  L 384.62 423.00
  L 386.55 398.81
  L 424.90 387.48
  Q 425.39 387.34 425.85 387.56
  Q 428.68 388.91 430.46 390.89
  Z"
/>
<path fill="#cccccc" d="
  M 430.46 390.89
  L 437.18 395.46
  Q 444.74 403.17 452.07 410.43
  Q 453.37 411.71 455.05 412.66
  Q 455.46 412.89 455.78 412.53
  L 458.07 410.00
  L 475.75 422.46
  L 472.23 423.00
  L 469.15 423.00
  L 460.97 423.00
  Q 460.68 423.01 460.39 423.00
  L 456.12 415.31
  Q 455.88 414.88 455.40 415.04
  Q 449.75 416.94 444.77 420.24
  Q 442.05 422.04 434.60 423.00
  L 407.90 423.00
  Q 405.55 422.64 404.00 422.85
  Q 403.20 422.96 402.66 422.44
  A 0.41 0.41 0.0 0 1 402.64 421.88
  L 430.46 390.89
  Z"
/>
<path fill="#cccccc" d="
  M 386.52 397.66
  L 364.05 403.78
  Q 366.46 401.46 368.88 400.37
  Q 376.43 396.99 381.24 394.44
  C 382.63 393.70 385.01 393.04 386.33 391.79
  Q 387.64 390.54 387.36 392.33
  L 386.52 397.66
  Z"
/>
<path fill="#ffffff" d="
  M 555.35 392.87
  L 558.86 408.71
  Q 557.38 409.95 555.00 410.33
  A 0.73 0.73 0.0 0 0 554.57 411.54
  Q 556.60 413.79 559.56 413.22
  L 561.17 419.63
  Q 561.30 420.17 561.68 419.76
  Q 561.94 419.48 561.82 418.98
  Q 561.30 416.95 561.05 413.87
  L 566.44 415.05
  L 562.71 421.46
  A 0.46 0.45 50.4 0 1 561.89 421.38
  Q 561.63 420.67 560.93 420.39
  Q 560.43 420.19 560.10 419.77
  L 551.43 408.84
  L 555.35 392.87
  Z"
/>
<path fill="#ffffff" d="
  M 437.18 395.46
  L 458.07 410.00
  L 455.78 412.53
  Q 455.46 412.89 455.05 412.66
  Q 453.37 411.71 452.07 410.43
  Q 444.74 403.17 437.18 395.46
  Z"
/>
<path fill="#cccccc" d="
  M 567.63 415.63
  L 573.87 404.98
  Q 576.81 403.46 579.80 402.59
  Q 581.98 401.96 584.15 401.30
  Q 589.83 399.55 595.40 397.84
  A 0.86 0.85 61.0 0 1 596.31 398.11
  L 599.37 401.69
  Q 599.77 402.17 599.77 402.79
  L 599.74 422.23
  A 0.62 0.62 0.0 0 1 599.12 422.85
  Q 597.24 422.86 595.27 422.40
  Q 581.52 419.25 567.63 415.63
  Z"
/>
<path fill="#cccccc" d="
  M 386.55 398.81
  L 384.62 423.00
  L 376.14 423.00
  L 355.87 423.00
  L 347.41 423.00
  Q 345.53 421.87 343.87 422.22
  Q 343.01 422.41 343.41 421.64
  Q 343.50 421.47 343.50 421.28
  Q 343.52 420.57 342.85 420.34
  Q 341.66 419.92 340.79 418.95
  A 2.28 2.25 75.1 0 0 339.65 418.28
  Q 338.75 418.06 338.10 417.36
  Q 337.57 416.77 338.29 416.45
  Q 344.40 413.73 350.07 410.38
  Q 350.69 410.02 351.49 409.89
  Q 353.98 409.50 352.59 408.63
  L 386.55 398.81
  Z"
/>
<path fill="#cccccc" d="
  M 572.45 405.16
  L 566.44 415.05
  L 561.05 413.87
  L 559.90 408.99
  L 572.45 405.16
  Z"
/>
<path fill="#cccccc" d="
  M 558.86 408.71
  L 559.56 413.22
  Q 556.60 413.79 554.57 411.54
  A 0.73 0.73 0.0 0 1 555.00 410.33
  Q 557.38 409.95 558.86 408.71
  Z"
/>
<path fill="#ffffff" d="
  M 352.59 408.63
  Q 353.98 409.50 351.49 409.89
  Q 350.69 410.02 350.07 410.38
  Q 344.40 413.73 338.29 416.45
  Q 337.57 416.77 338.10 417.36
  Q 338.75 418.06 339.65 418.28
  A 2.28 2.25 75.1 0 1 340.79 418.95
  Q 341.66 419.92 342.85 420.34
  Q 343.52 420.57 343.50 421.28
  Q 343.50 421.47 343.41 421.64
  Q 343.01 422.41 343.87 422.22
  Q 345.53 421.87 347.41 423.00
  L 302.54 423.00
  L 352.59 408.63
  Z"
/>
<path fill="#cccccc" d="
  M 545.18 422.29
  L 550.25 412.56
  A 0.33 0.33 0.0 0 1 550.87 412.66
  L 552.59 422.40
  A 0.33 0.33 0.0 0 1 552.27 422.79
  L 545.47 422.77
  A 0.33 0.33 0.0 0 1 545.18 422.29
  Z"
/>
<path fill="#ffffff" d="
  M 460.39 423.00
  L 434.60 423.00
  Q 442.05 422.04 444.77 420.24
  Q 449.75 416.94 455.40 415.04
  Q 455.88 414.88 456.12 415.31
  L 460.39 423.00
  Z"
/>
<path fill="#ffffff" d="
  M 475.75 422.46
  L 476.66 423.00
  L 472.23 423.00
  L 475.75 422.46
  Z"
/>
<path fill="#ffffff" d="
  M 376.14 423.00
  L 355.87 423.00
  L 376.14 423.00
  Z"
/>
<path fill="#ffffff" d="
  M 469.15 423.00
  L 460.97 423.00
  L 469.15 423.00
  Z"
/>
</svg>
